#N canvas 416 299 700 300 10;
#X obj 46 14 r \$2-omni_strip_\$1_s;
#X obj 46 141 route 0 1;
#X obj 71 181 s \$2-omni_strip_vel_\$1_r;
#X obj 46 231 s \$2-omni_strip_vel_\$1_r;
#X obj 61 37 r \$2-omni_strip_vel_\$1_s;
#X obj 46 58 f;
#X obj 46 79 t f f, f 8;
#X obj 46 100 == 0;
#X obj 46 121 pack f f;
#X msg 46 210 0;
#X msg 71 161 127;
#X obj 246 14 r \$2-omni_strip_vel_\$1_s;
#X obj 336 34 r \$2-current_instrument_s;
#X obj 321 95 f;
#X obj 246 178 tabwrite;
#X obj 321 116 pack f f;
#X obj 366 71 f \$2;
#X obj 426 55 loadbang;
#X obj 246 35 t f b, f 8;
#X msg 321 137 set \$2-instrument_array_\$1;
#X obj 246 106 pack f f;
#X obj 291 71 f \$1;
#X connect 0 0 5 0;
#X connect 1 0 9 0;
#X connect 1 1 10 0;
#X connect 4 0 5 1;
#X connect 5 0 6 0;
#X connect 6 0 7 0;
#X connect 6 1 8 1;
#X connect 7 0 8 0;
#X connect 8 0 1 0;
#X connect 9 0 3 0;
#X connect 10 0 2 0;
#X connect 11 0 18 0;
#X connect 12 0 13 1;
#X connect 13 0 15 0;
#X connect 15 0 19 0;
#X connect 16 0 15 1;
#X connect 17 0 16 0;
#X connect 17 0 21 0;
#X connect 18 0 20 0;
#X connect 18 1 13 0;
#X connect 19 0 14 0;
#X connect 20 0 14 0;
#X connect 21 0 20 1;
