#N canvas 738 23 646 813 10;
#X obj 168 367 pack f f f;
#X msg 168 408 \; \$3-omni_strip_canv_\$1_r color \$2;
#X obj 225 322 pack f f f, f 13;
#X obj 434 351 f \$2;
#X obj 434 331 loadbang;
#X obj 168 152 r \$2-omni_strip_vel_\$1_s;
#X obj 168 214 f \$1;
#X obj 168 193 t b f, f 10;
#X obj 225 235 t b f f, f 13;
#X msg 225 256 235;
#X text 156 125 colour canvas by velocity;
#X obj 262 276 expr 235 - ($f1*1.5);
#X obj 300 296 expr 235 - ($f1 * 1.5);
#X obj 225 343 uutil/headless/rgbtopdcolour;
#X connect 0 0 1 0;
#X connect 2 0 13 0;
#X connect 3 0 0 2;
#X connect 4 0 3 0;
#X connect 5 0 7 0;
#X connect 6 0 0 0;
#X connect 7 0 6 0;
#X connect 7 1 8 0;
#X connect 8 0 9 0;
#X connect 8 1 11 0;
#X connect 8 2 12 0;
#X connect 9 0 2 0;
#X connect 11 0 2 1;
#X connect 12 0 2 2;
#X connect 13 0 0 1;
