#N canvas 719 23 541 821 10;
#X obj 101 70 hradio 20 1 0 16 \$0-sequence_length_s \$0-sequence_length_r
empty 0 -8 0 10 -262144 -1 -1 14;
#X obj 101 50 cnv 15 40 40 empty \$0-vis_0 empty 20 12 0 14 -262144
-66577 0;
#X obj 141 50 cnv 15 40 40 empty \$0-vis_1 empty 20 12 0 14 -262144
-66577 0;
#X obj 181 50 cnv 15 40 40 empty \$0-vis_2 empty 20 12 0 14 -262144
-66577 0;
#X obj 221 50 cnv 15 40 40 empty \$0-vis_3 empty 20 12 0 14 -262144
-66577 0;
#X obj 261 50 cnv 15 40 40 empty \$0-vis_4 empty 20 12 0 14 -262144
-66577 0;
#X obj 301 50 cnv 15 40 40 empty \$0-vis_5 empty 20 12 0 14 -262144
-66577 0;
#X obj 341 50 cnv 15 40 40 empty \$0-vis_6 empty 20 12 0 14 -262144
-66577 0;
#X floatatom 105 55 5 0 0 0 - #0-0_r #0-0_s, f 5;
#X floatatom 145 55 5 0 0 0 - #0-1_r #0-1_s, f 5;
#X floatatom 185 55 5 0 0 0 - #0-2_r #0-2_s, f 5;
#X floatatom 225 55 5 0 0 0 - #0-3_r #0-3_s, f 5;
#X floatatom 265 55 5 0 0 0 - #0-4_r #0-4_s, f 5;
#X floatatom 305 55 5 0 0 0 - #0-5_r #0-5_s, f 5;
#X floatatom 345 55 5 0 0 0 - #0-6_r #0-6_s, f 5;
#X obj 381 50 cnv 15 40 40 empty \$0-vis_7 empty 20 12 0 14 -233017
-66577 0;
#X floatatom 385 55 5 0 0 0 - #0-7_r #0-7_s, f 5;
#X obj 116 75 cnv 10 10 10 empty \$0-vis_step_0 empty 20 12 0 14 -260974
-66577 0;
#X obj 156 75 cnv 10 10 10 empty \$0-vis_step_1 empty 20 12 0 14 -260974
-66577 0;
#X obj 196 75 cnv 10 10 10 empty \$0-vis_step_2 empty 20 12 0 14 -260974
-66577 0;
#X obj 236 75 cnv 10 10 10 empty \$0-vis_step_3 empty 20 12 0 14 -260974
-66577 0;
#X obj 276 75 cnv 10 10 10 empty \$0-vis_step_4 empty 20 12 0 14 -260974
-66577 0;
#X obj 316 75 cnv 10 10 10 empty \$0-vis_step_5 empty 20 12 0 14 -260974
-66577 0;
#X obj 356 75 cnv 10 10 10 empty \$0-vis_step_6 empty 20 12 0 14 -260974
-66577 0;
#X obj 396 75 cnv 10 10 10 empty \$0-vis_step_7 empty 20 12 0 14 -49933
-66577 0;
#X obj 57 253 f, f 4;
#X obj 97 246 + 1;
#X obj 97 266 expr if($f1 > $f2 \, 0 \, $f1);
#X msg 57 308 \$1 bang;
#X obj 57 329 route 0 1 2 3 4 5 6 7, f 27;
#X obj 57 650 f;
#X obj 72 630 r \$0-0_s;
#X obj 76 610 f;
#X obj 96 570 f;
#X obj 116 530 f;
#X obj 136 490 f;
#X obj 156 450 f;
#X obj 176 410 f;
#X obj 196 370 f;
#X obj 91 590 r \$0-1_s;
#X obj 111 550 r \$0-2_s;
#X obj 131 510 r \$0-3_s;
#X obj 151 470 r \$0-4_s;
#X obj 171 430 r \$0-5_s;
#X obj 191 390 r \$0-6_s;
#X obj 211 350 r \$0-7_s;
#N canvas 162 23 852 354 draw_faceplate 0;
#X obj 446 228 pack f f f;
#X obj 582 212 f \$0;
#X obj 555 125 loadbang;
#X obj 555 147 t b b;
#X obj 643 228 pack f f f;
#X obj 779 212 f \$0;
#X obj 752 125 loadbang;
#X obj 752 147 t b b;
#X obj 446 78 inlet;
#N canvas 0 23 450 300 for_loop 0;
#X msg 162 80 8;
#X msg 214 80 0;
#X obj 162 101 until;
#X obj 162 122 f, f 8;
#X obj 192 143 + 1;
#X obj 162 59 t b b f, f 18;
#X obj 162 224 route 0 1;
#X obj 162 204 pack f f;
#X obj 162 163 t f f, f 8;
#X obj 162 37 inlet;
#X obj 162 265 outlet;
#X obj 187 245 outlet, f 30;
#X obj 162 183 expr if($f1 == $f2 \, 1 \, 0);
#X connect 0 0 2 0;
#X connect 1 0 3 1;
#X connect 2 0 3 0;
#X connect 3 0 4 0;
#X connect 3 0 8 0;
#X connect 4 0 3 1;
#X connect 5 0 0 0;
#X connect 5 1 1 0;
#X connect 5 2 12 1;
#X connect 6 0 10 0;
#X connect 6 1 11 0;
#X connect 7 0 6 0;
#X connect 8 0 12 0;
#X connect 8 1 7 1;
#X connect 9 0 5 0;
#X connect 12 0 7 0;
#X restore 446 98 pd for_loop;
#X msg 446 250 \; \$3-vis_\$1 color \$2;
#X msg 643 250 \; \$3-vis_\$1 color \$2;
#X obj 30 230 pack f f f;
#X obj 146 214 f \$0;
#X obj 119 120 loadbang;
#X obj 119 142 t b b;
#X msg 58 158 50 50 50;
#X text 55 137 text dark;
#X obj 227 230 pack f f f;
#X obj 363 214 f \$0;
#X obj 336 120 loadbang;
#X obj 336 142 t b b;
#X msg 255 158 255 180 180;
#X text 444 57 colors the sequences to show how long they're set to
be;
#X text 64 55 colors the little pips to show what step it is on;
#X obj 30 78 inlet;
#N canvas 0 23 450 300 for_loop 0;
#X msg 162 80 8;
#X msg 214 80 0;
#X obj 162 101 until;
#X obj 162 122 f, f 8;
#X obj 192 143 + 1;
#X obj 162 59 t b b f, f 18;
#X obj 162 224 route 0 1;
#X obj 162 204 pack f f;
#X obj 162 163 t f f, f 8;
#X obj 162 37 inlet;
#X obj 162 265 outlet;
#X obj 187 245 outlet, f 30;
#X obj 162 183 expr if($f1 == $f2 \, 0 \, 1), f 30;
#X connect 0 0 2 0;
#X connect 1 0 3 1;
#X connect 2 0 3 0;
#X connect 3 0 4 0;
#X connect 3 0 8 0;
#X connect 4 0 3 1;
#X connect 5 0 0 0;
#X connect 5 1 1 0;
#X connect 5 2 12 1;
#X connect 6 0 10 0;
#X connect 6 1 11 0;
#X connect 7 0 6 0;
#X connect 8 0 12 0;
#X connect 8 1 7 1;
#X connect 9 0 5 0;
#X connect 12 0 7 0;
#X restore 30 99 pd for_loop;
#X msg 30 252 \; \$3-vis_step_\$1 color \$2;
#X msg 227 252 \; \$3-vis_step_\$1 color \$2;
#X text 473 142 panel light;
#X text 670 142 panel dark;
#X text 254 137 panel light;
#X obj 58 186 uutil/headless/rgbtopdcolour;
#X obj 255 186 uutil/headless/rgbtopdcolour;
#X obj 474 184 uutil/headless/rgbtopdcolour;
#X obj 671 184 uutil/headless/rgbtopdcolour;
#X msg 474 163 255 255 255;
#X msg 671 163 225 225 225;
#X connect 0 0 10 0;
#X connect 1 0 0 2;
#X connect 2 0 3 0;
#X connect 3 0 36 0;
#X connect 3 1 1 0;
#X connect 4 0 11 0;
#X connect 5 0 4 2;
#X connect 6 0 7 0;
#X connect 7 0 37 0;
#X connect 7 1 5 0;
#X connect 8 0 9 0;
#X connect 9 0 0 0;
#X connect 9 1 4 0;
#X connect 12 0 27 0;
#X connect 13 0 12 2;
#X connect 14 0 15 0;
#X connect 15 0 16 0;
#X connect 15 1 13 0;
#X connect 16 0 32 0;
#X connect 18 0 28 0;
#X connect 19 0 18 2;
#X connect 20 0 21 0;
#X connect 21 0 22 0;
#X connect 21 1 19 0;
#X connect 22 0 33 0;
#X connect 25 0 26 0;
#X connect 26 0 12 0;
#X connect 26 1 18 0;
#X connect 32 0 12 1;
#X connect 33 0 18 1;
#X connect 34 0 0 1;
#X connect 35 0 4 1;
#X connect 36 0 34 0;
#X connect 37 0 35 0;
#X restore 178 308 pd draw_faceplate;
#X obj 250 245 t f f;
#X obj 57 288 t f f, f 20;
#X obj 250 225 expr floor($f1/2);
#X text 30 119 bang to advance;
#X obj 286 686 makenote;
#X obj 286 707 pack f f;
#X obj 286 748 outlet;
#X obj 326 625 r \$0-velocity_s;
#X obj 286 666 pack f f f, f 14;
#X msg 286 728 0 \$1 \$2;
#X text 104 35 VELOCITY;
#X text 315 35 NOTE LENGTH;
#X floatatom 156 35 5 0 0 0 - #0-velocity_r #0-velocity_s, f 5;
#X floatatom 385 35 5 0 0 0 - #0-note_length_r #0-note_length_s, f
5;
#N canvas 225 359 450 300 initialize 0;
#X obj 365 56 loadbang;
#X msg 35 72 127;
#X obj 35 93 s \$0-velocity_r;
#X msg 155 72 200;
#X obj 155 93 s \$0-note_length_r;
#X obj 365 136 loadbang;
#X obj 35 173 s \$0-sequence_length_r;
#X msg 35 152 14;
#X msg 245 152 1;
#X obj 245 173 s \$0-divisor_r;
#X connect 0 0 1 0;
#X connect 0 0 3 0;
#X connect 1 0 2 0;
#X connect 3 0 4 0;
#X connect 5 0 7 0;
#X connect 5 0 8 0;
#X connect 7 0 6 0;
#X connect 8 0 9 0;
#X restore 92 727 pd initialize;
#X obj 367 645 r \$0-note_length_s;
#X obj 250 204 r \$0-sequence_length_s;
#X obj 77 179 inlet f;
#X obj 57 139 inlet b;
#X text 70 159 change to <step> (slave mode);
#X obj 77 200 t f f;
#X connect 25 0 26 0;
#X connect 26 0 27 0;
#X connect 27 0 25 1;
#X connect 27 0 48 0;
#X connect 28 0 29 0;
#X connect 29 0 30 0;
#X connect 29 1 32 0;
#X connect 29 2 33 0;
#X connect 29 3 34 0;
#X connect 29 4 35 0;
#X connect 29 5 36 0;
#X connect 29 6 37 0;
#X connect 29 7 38 0;
#X connect 30 0 55 0;
#X connect 31 0 30 1;
#X connect 32 0 55 0;
#X connect 33 0 55 0;
#X connect 34 0 55 0;
#X connect 35 0 55 0;
#X connect 36 0 55 0;
#X connect 37 0 55 0;
#X connect 38 0 55 0;
#X connect 39 0 32 1;
#X connect 40 0 33 1;
#X connect 41 0 34 1;
#X connect 42 0 35 1;
#X connect 43 0 36 1;
#X connect 44 0 37 1;
#X connect 45 0 38 1;
#X connect 47 0 27 1;
#X connect 47 1 46 1;
#X connect 48 0 28 0;
#X connect 48 1 46 0;
#X connect 49 0 47 0;
#X connect 51 0 52 0;
#X connect 51 1 52 1;
#X connect 52 0 56 0;
#X connect 54 0 55 1;
#X connect 55 0 51 0;
#X connect 56 0 53 0;
#X connect 62 0 55 2;
#X connect 63 0 49 0;
#X connect 64 0 67 0;
#X connect 65 0 25 0;
#X connect 67 0 48 0;
#X connect 67 1 25 1;
#X coords 0 -1 1 1 322 60 2 100 30;
